
<svg xmlns="http://www.w3.org/2000/svg" width="64" height="64" viewBox="0 0 512 512">
  <path fill="#006241" d="M256,0C114.6,0,0,114.6,0,256s114.6,256,256,256s256-114.6,256-256S397.4,0,256,0z M398.7,258.3
    c-0.3,24.6-3.6,39.3-5.7,48.4c-3.1,12.9-6.8,22.4-12.8,31c-6,8.6-13.5,14.2-21.5,19.8c-7.9,5.6-16.3,9.7-24.7,13
    c-8.5,3.3-17.1,5.8-25.6,7.7c-8.5,1.8-14.6,2.4-26.1,3.1c-6.4,0.4-17.5,0.5-25.7,0.5c-8.2,0-19.3-0.1-25.7-0.5
    c-11.5-0.7-17.6-1.3-26.1-3.1c-8.5-1.9-17.1-4.4-25.6-7.7c-8.4-3.3-16.8-7.4-24.7-13c-8-5.6-15.5-11.2-21.5-19.8
    c-6-8.6-9.7-18.1-12.8-31c-2.1-9.2-5.4-23.8-5.7-48.4c-0.1-0.8-0.1-20.4,0-42c0.3-24.7,3.6-39.3,5.7-48.4c3.1-12.9,6.8-22.4,12.8-31
    c6-8.6,13.5-14.2,21.5-19.8c7.9-5.6,16.3-9.7,24.7-13c8.5-3.3,17.1-5.8,25.6-7.7c8.5-1.8,14.6-2.4,26.1-3.1
    c6.4-0.4,17.5-0.5,25.7-0.5c8.2,0,19.3,0.2,25.7,0.5c11.5,0.7,17.6,1.3,26.1,3.1c8.5,1.9,17.1,4.4,25.6,7.7
    c8.4,3.3,16.8,7.4,24.7,13c8,5.6,15.5,11.2,21.5,19.8c6,8.6,9.7,18.1,12.8,31c2.1,9.1,5.4,23.7,5.7,48.4
    C398.8,237.8,398.7,257.4,398.7,258.3z"/>
  <path fill="#fff" d="M276.6,109.3c-5.4-0.3-15.6-0.5-20.6-0.5c-5,0-15.2,0.2-20.6,0.5c-9.2,0.6-14.3,1.3-20.4,2.5
    c-6.1,1.3-11.3,3-17.1,5.1c-5.8,2.3-10.4,5-16.1,8.8c-5.7,3.8-10.1,7.6-14.3,13.3c-4.2,5.7-7,11.9-9.2,21.1
    c-1.6,6.5-3.5,17.2-3.7,34.2c-0.1,14.7,0,34.7,0,35.3c0.2,17.1,2,27.8,3.7,34.3c2.2,9.2,5,15.3,9.2,21.1c4.2,5.7,8.6,9.5,14.3,13.3
    c5.7,3.8,10.3,6.5,16.1,8.8c5.8,2.1,11,3.8,17.1,5.1c6.1,1.2,11.2,1.9,20.4,2.5c5.4,0.3,15.6,0.5,20.6,0.5c5,0,15.2-0.2,20.6-0.5
    c9.2-0.6,14.3-1.3,20.4-2.5c6.1-1.3,11.3-3,17.1-5.1c5.8-2.3,10.4-5,16.1-8.8c5.7-3.8,10.1-7.6,14.3-13.3c4.2-5.7,7-11.9,9.2-21.1
    c1.6-6.5,3.5-17.2,3.7-34.3c0-0.6,0.1-20.6,0-35.3c-0.2-17.1-2.1-27.7-3.7-34.2c-2.2-9.2-5-15.3-9.2-21.1
    c-4.2-5.7-8.6-9.5-14.3-13.3c-5.7-3.8-10.3-6.5-16.1-8.8c-5.8-2.1-11-3.8-17.1-5.1C290.9,110.6,285.8,109.9,276.6,109.3z M256,347.3
    c-50.4,0-91.3-40.9-91.3-91.3s40.9-91.3,91.3-91.3s91.3,40.9,91.3,91.3S306.4,347.3,256,347.3z"/>
  <path fill="#006241" d="M256,174.2c-45.1,0-81.8,36.7-81.8,81.8s36.7,81.8,81.8,81.8s81.8-36.7,81.8-81.8S301.1,174.2,256,174.2z
   M256,319.3c-34.9,0-63.3-28.4-63.3-63.3s28.4-63.3,63.3-63.3s63.3,28.4,63.3,63.3S290.9,319.3,256,319.3z"/>
</svg>
